Coordinates
version=1
nRows=37
nColumns=19
inDegrees=yes

Units are S.I. units (second, meters, Newtons, ...)
If the header above contains a line with 'inDegrees', this indicates whether rotational values are in degrees (yes) or radians (no).

endheader
time	pelvis_tilt	pelvis_list	pelvis_rotation	pelvis_tx	pelvis_ty	pelvis_tz	hip_flexion_r	hip_adduction_r	hip_rotation_r	knee_angle_r	knee_angle_r_beta	ankle_angle_r	hip_flexion_l	hip_adduction_l	hip_rotation_l	knee_angle_l	knee_angle_l_beta	ankle_angle_l
     13.84666667	     -2.39120723	      6.27747076	      3.71798410	      2.32759186	      0.91235436	      1.03710356	    -21.42945594	    -10.06799758	    -12.79302890	     91.51762818	      1.59728394	     -8.30030179	     26.78089246	     10.45727370	     -7.68770202	     16.05299412	      0.28017760	     -3.86470593
     13.85333333	     -2.41343137	      6.65654724	      4.41192993	      2.32627074	      0.90747426	      1.03704438	    -19.78372800	    -10.08483473	    -12.62817681	     96.20721565	      1.67913268	     -7.99864033	     27.15346757	     10.93270851	     -7.41264979	     19.67522948	      0.34339754	     -2.49251646
     13.86000000	     -2.57802217	      6.96441795	      5.13604508	      2.32489556	      0.90211660	      1.03691307	    -17.88732751	    -10.16866225	    -12.56452470	    100.76427043	      1.75866829	     -7.65686228	     27.66372532	     11.37782564	     -7.02670198	     23.55901498	      0.41118238	     -0.75128870
     13.86666667	     -2.88305715	      7.14922947	      5.85982600	      2.32337694	      0.89644944	      1.03668703	    -15.68845913	    -10.27277825	    -12.50771915	    105.17634473	      1.83567351	     -7.28587050	     28.24075859	     11.75954516	     -6.51225254	     27.50681826	      0.48008455	      1.32168901
     13.87333333	     -3.26104334	      7.26029316	      6.57055787	      2.32168827	      0.89071690	      1.03640853	    -13.24138744	    -10.44640453	    -12.42719037	    109.41936896	      1.90972825	     -6.88916368	     28.72528807	     12.13220022	     -5.87010203	     31.30618358	      0.54639598	      3.69372350
     13.88000000	     -3.73086850	      7.23766006	      7.24708971	      2.31974571	      0.88507415	      1.03605400	    -10.46606927	    -10.61253213	    -12.25078545	    113.46685827	      1.98037027	     -6.45105591	     29.11162028	     12.43771224	     -5.09986930	     34.86104647	      0.60844004	      6.30551915
     13.88666667	     -4.17514457	      7.09836627	      7.88088229	      2.31756642	      0.87985998	      1.03568120	     -7.47622801	    -10.74842193	    -11.97916309	    117.23849376	      2.04619773	     -6.01816484	     29.21769925	     12.66675377	     -4.20807021	     38.04367689	      0.66398742	      9.09551589
     13.89333333	     -3.40208914	      7.00033581	      9.00935642	      2.31695444	      0.87702417	      1.03508408	     -6.25755369	    -10.65688834	    -12.53796197	    119.72753561	      2.08963970	     -5.81183745	     27.38230720	     13.01741880	     -2.67393289	     40.55723758	      0.70785733	     12.06755955
     13.90000000	     -0.44431945	      6.78838117	     11.20088707	      2.31965076	      0.87830148	      1.03410323	     -8.41144008	     -9.61738216	    -14.80842268	    119.92472092	      2.09308123	     -6.03557161	     22.27457280	     13.11028365	      0.19207175	     42.26639096	      0.73768769	     15.23298845
     13.90666667	      2.57159072	      6.56774059	     12.91636601	      2.32173522	      0.88042659	      1.03352973	    -10.12756332	     -8.59297896	    -16.52600597	    119.95493322	      2.09360854	     -6.15179097	     16.81112285	     12.56267723	      2.75324942	     43.25432338	      0.75493036	     18.20472367
     13.91333333	      5.32432845	      6.13693129	     14.09894268	      2.32293224	      0.88304990	      1.03322172	    -10.94634143	     -7.56084920	    -17.58057252	    119.96626512	      2.09380632	     -6.17137392	     11.49229485	     11.35224919	      4.87565700	     43.56641280	      0.76037735	     20.80393461
     13.92000000	      7.33371680	      5.10833908	     15.08964174	      2.32315613	      0.88551247	      1.03285733	    -10.31773288	     -6.21289686	    -18.26853406	    119.97191210	      2.09390488	     -6.14265322	      7.12856636	      9.38665480	      6.69853083	     43.55416034	      0.76016350	     23.03477648
     13.92666667	      9.56910776	      4.36608769	     15.19970140	      2.32261669	      0.88897250	      1.03291505	     -9.62446688	     -5.44800108	    -18.13056914	    119.97462978	      2.09395231	     -5.70259325	      2.13631438	      7.40325063	      7.55843786	     42.47965094	      0.74140977	     24.53905968
     13.93333333	     10.91467664	      3.14843873	     15.21165088	      2.32113210	      0.89201302	      1.03268414	     -7.55020920	     -4.55779935	    -17.82307316	    119.97580378	      2.09397280	     -5.20396304	     -1.75960601	      5.17315235	      8.17430290	     41.17812906	      0.71869393	     25.41564701
     13.94000000	     11.37501451	      1.57134653	     14.97984053	      2.31901047	      0.89455357	      1.03236562	     -4.17009635	     -3.60224444	    -17.28213887	    119.97593399	      2.09397507	     -4.61298997	     -4.62505594	      2.84196854	      8.29683615	     39.68135465	      0.69257029	     25.67769096
     13.94666667	     11.17153827	      0.08322808	     14.34938545	      2.31634844	      0.89676745	      1.03207784	      0.03158409	     -3.01290964	    -16.45966435	    119.97499363	      2.09395866	     -3.89133875	     -6.91813069	      0.90567411	      7.94350743	     37.86170667	      0.66081144	     25.22100075
     13.95333333	     10.25766365	     -1.29574133	     13.29660270	      2.31325904	      0.89848808	      1.03205950	      5.12846921	     -2.62824797	    -15.30029807	    119.97278276	      2.09392007	     -3.21653070	     -8.54865187	     -0.60395566	      7.12018873	     35.88465116	      0.62630531	     24.00592715
     13.96000000	      8.12914261	     -2.61892742	     11.89170819	      2.30999917	      0.89909857	      1.03234488	     11.66721668	     -2.32901378	    -13.89005719	    119.96900977	      2.09385422	     -2.69427041	     -8.81764995	     -1.66949276	      5.95365791	     34.08584534	      0.59491023	     22.20369129
     13.96666667	      5.50663378	     -3.21066314	      9.94884550	      2.30671072	      0.89915273	      1.03313677	     18.65503820	     -2.54907680	    -11.90273612	    119.96224303	      2.09373612	     -2.34282063	     -8.85110633	     -1.77843740	      4.40718280	     32.01795244	      0.55881869	     19.64004242
     13.97333333	      1.93044155	     -3.09272129	      7.85675516	      2.30355470	      0.89786031	      1.03433557	     26.59360311	     -3.15118490	     -9.54103306	    119.94852956	      2.09349677	     -1.98250718	     -7.83604719	     -1.03018856	      2.86129120	     30.10343805	      0.52540411	     16.55689403
     13.98000000	     -1.65623623	     -1.96169602	      5.54851754	      2.30064680	      0.89587987	      1.03597690	     34.50397409	     -4.11375101	     -6.46572390	    119.90921456	      2.09281060	     -1.77159019	     -6.94613434	      0.69454165	      1.07709367	     27.96621392	      0.48810251	     12.89375692
     13.98666667	     -4.26596543	     -0.06844872	      3.54594428	      2.29873445	      0.89441768	      1.03744898	     41.03318249	     -5.31468851	     -3.23328202	    119.51412719	      2.08591502	     -1.52139046	     -7.30048274	      3.02696556	     -0.42680245	     25.27631056	      0.44115484	      8.73743080
     13.99333333	     -5.53340341	     -0.30876618	      2.93866684	      2.30035173	      0.89751233	      1.03737768	     44.30384002	     -4.90978815	     -3.04416077	    116.66519164	      2.03619172	     -1.41250336	     -9.15805675	      2.73005297	     -1.06765501	     22.14948815	      0.38658150	      4.08419808
     14.00000000	     -5.75930525	     -0.99815091	      2.64262313	      2.30317186	      0.90255736	      1.03676209	     45.66358814	     -4.36869100	     -3.68540153	    113.01264496	      1.97244275	     -1.17454232	    -12.30259963	      1.91157301	     -1.48255082	     18.57430449	      0.32418277	     -0.92003676
     14.00666667	     -6.09335274	     -1.82309326	      2.58526706	      2.30615873	      0.90748937	      1.03601300	     46.82227232	     -3.89955992	     -4.68049965	    109.07198377	      1.90366524	     -0.93516035	    -15.07395673	      0.90741425	     -1.84338029	     15.38434489	      0.26850747	     -5.63605528
     14.01333333	     -6.76473252	     -2.50351953	      2.48680752	      2.30918556	      0.91179634	      1.03543302	     48.19795958	     -3.55168113	     -5.57687197	    105.00933762	      1.83275869	     -0.70150123	    -17.21039148	      0.07095808	     -2.37992041	     12.71017882	      0.22183447	    -10.01035702
     14.02000000	     -7.50375346	     -3.11641124	      2.39348112	      2.31218578	      0.91578733	      1.03498108	     49.45331429	     -3.28156011	     -6.49786877	    100.77211241	      1.75880516	     -0.42821771	    -18.97062308	     -0.70857139	     -3.11654446	     10.64955876	      0.18586986	    -13.76140316
     14.02666667	     -8.28266770	     -3.62591881	      2.33130548	      2.31510831	      0.91945872	      1.03460118	     50.56236880	     -3.12598785	     -7.43232894	     96.37101891	      1.68199158	     -0.09507193	    -20.34187489	     -1.40306067	     -3.95629595	      9.33621067	      0.16294762	    -16.72429481
     14.03333333	     -9.20188260	     -3.96745147	      2.12777893	      2.31787512	      0.92260073	      1.03452759	     51.70025585	     -2.97562060	     -8.19775802	     91.83938015	      1.60289957	      0.25196476	    -21.22611355	     -1.90478754	     -5.06780725	      8.83109988	      0.15413177	    -18.83407147
     14.04000000	    -10.42334873	     -3.93534740	      1.91880103	      2.32037110	      0.92496794	      1.03465310	     53.07604468	     -3.10296935	     -8.73009296	     87.26168251	      1.52300367	      0.65401779	    -21.38661222	     -2.07054201	     -6.18137897	      9.23264006	      0.16113997	    -20.25103276
     14.04666667	    -10.91701552	     -4.12134052	      1.48281143	      2.32269829	      0.92769894	      1.03510821	     53.45049032	     -2.75854160	     -9.34681988	     82.37624322	      1.43773667	      1.05613864	    -22.15922521	     -2.41302324	     -7.68519763	     10.21941262	      0.17836240	    -20.72294631
     14.05333333	    -11.54018346	     -4.01234738	      1.01944537	      2.32465218	      0.92976176	      1.03584398	     53.87059679	     -2.57519321	     -9.79640307	     77.41116396	      1.35107969	      1.47225915	    -22.46774242	     -2.51956107	     -9.09065594	     11.99850961	      0.20941350	    -20.68971278
     14.06000000	    -12.17813785	     -3.76764142	      0.36073051	      2.32612320	      0.93120351	      1.03706837	     54.23982211	     -2.19902372	    -10.00195141	     72.32232771	      1.26226274	      1.78198483	    -22.51369870	     -2.50914006	    -10.58172582	     14.46479039	      0.25245822	    -20.12612388
     14.06666667	    -12.70124079	     -3.47081571	     -0.32355182	      2.32709831	      0.93223636	      1.03851112	     54.34123777	     -1.73440254	    -10.16070493	     67.05551655	      1.17033955	      2.00944099	    -22.43304631	     -2.52181535	    -11.92027202	     17.55311922	      0.30635972	    -19.23686943
     14.07333333	    -13.09173527	     -3.11847708	     -1.04305942	      2.32761750	      0.93287415	      1.04026925	     54.16384620	     -1.15859208	    -10.22417272	     61.64385514	      1.07588824	      2.09950421	    -22.32360322	     -2.52135836	    -12.98432367	     21.07320014	      0.36779673	    -18.18446363
     14.08000000	    -13.31031116	     -2.67232062	     -1.87827110	      2.32762824	      0.93309366	      1.04235973	     53.70184320	     -0.39615817	     -9.98253423	     56.14085380	      0.97984274	      2.03699402	    -22.27226879	     -2.39840084	    -13.79687683	     24.90027885	      0.43459185	    -17.03808028
     14.08666667	    -13.34788636	     -2.30502885	     -2.59767697	      2.32735984	      0.93320151	      1.04444693	     52.81987466	      0.41739110	     -9.77319862	     50.46884503	      0.88084752	      1.73251506	    -22.26782110	     -2.35680966	    -14.09609136	     28.96187149	      0.50548002	    -16.01078677
